<svg width="122" height="91" viewBox="0 0 122 91" fill="none" xmlns="http://www.w3.org/2000/svg">
<path d="M112.524 23.3634C110.321 24.249 108.065 25.0051 105.766 25.6273C103.783 26.1786 101.705 26.3394 99.6553 26.0999C97.8987 25.9187 97.884 25.8791 98.5748 27.5148C100.19 31.2955 101.214 35.1865 100.789 39.2983C100.494 42.0037 99.0176 44.0695 96.5526 45.3797C94.7813 46.3277 93.7421 45.8042 93.1783 43.7639C92.5878 44.6553 92.1096 45.4618 91.5635 46.2259C90.5804 47.6068 89.3877 48.6171 87.4511 48.1587C87.2513 48.1033 87.0395 48.1004 86.8381 48.1502C86.6366 48.1999 86.4528 48.3006 86.3057 48.4416C85.0422 49.6896 83.4923 49.5255 81.9454 49.2538C81.2756 49.1009 80.5705 49.1896 79.9645 49.5028C79.0198 50.0066 78.084 50.3943 77.0419 49.616C76.4928 49.2057 76.2773 49.7405 76.0323 50.1141C75.4418 50.9998 74.8514 51.8913 74.2226 52.743C73.8447 53.2524 73.3635 53.6854 72.6048 53.4703C72.4235 53.4377 72.2568 53.3532 72.1266 53.2279C71.9964 53.1026 71.9089 52.9424 71.8757 52.7685C71.7605 52.0695 72.3037 51.8262 72.7613 51.4441C74.2374 50.2273 74.9223 48.5548 75.495 46.8314C75.619 46.4579 75.6721 46.0617 75.8197 45.6995C75.8815 45.5327 75.9981 45.3896 76.1519 45.2918C76.3057 45.1939 76.4886 45.1465 76.6729 45.1567C76.8572 45.1669 77.0331 45.2342 77.1742 45.3484C77.3152 45.4626 77.4138 45.6176 77.4552 45.7901C77.5349 46.0391 77.5467 46.3108 77.6353 46.557C78.0633 47.7795 78.8161 47.9521 79.7018 47.0012C80.0681 46.5566 80.4025 46.0886 80.7025 45.6005C80.7853 45.4419 80.9178 45.3121 81.0814 45.2294C81.245 45.1467 81.4315 45.1151 81.6147 45.1392C81.8018 45.1611 81.9721 45.2533 82.0883 45.3955C82.2046 45.5377 82.2572 45.7183 82.2347 45.8976C82.1255 46.8371 82.5476 47.3606 83.4953 47.3748C84.5875 47.3748 85.3167 46.8088 85.5618 45.7985C85.6916 45.2977 85.6267 44.7515 85.6651 44.228C85.7123 43.6394 85.7802 43.0083 86.5832 42.9941C87.2474 42.9941 87.8497 43.2262 88.0917 43.9139C88.1773 44.1601 88.1862 44.4346 88.2777 44.6807C88.4253 45.0769 88.2246 45.6995 88.7235 45.841C89.2874 45.9995 89.6091 45.4335 89.863 45.0599C90.6749 43.8969 91.5251 42.7508 91.9148 41.367C92.0387 40.9283 92.1657 40.5322 91.9148 40.1049C91.7812 39.887 91.7399 39.6283 91.7992 39.3821C91.8586 39.1359 92.0142 38.9208 92.2339 38.7812C92.4537 38.6417 92.7209 38.5881 92.9806 38.6317C93.2403 38.6752 93.4727 38.8125 93.6299 39.0154C94.365 40.1982 96.3548 40.6142 95.8293 42.6348C95.6492 43.3168 96.4817 42.9036 96.7651 42.6631C98.6013 41.1038 99.3099 39.0493 99.298 36.7826C99.2715 32.7217 97.9755 28.9382 96.3459 25.2367C96.095 24.6708 95.5843 24.4048 95.0972 24.0737C93.8071 23.1936 92.2424 22.6361 91.3745 21.2438C91.1206 20.8335 90.7398 20.3948 91.1029 19.9223C91.466 19.4497 92.0801 19.5629 92.6115 19.7327C94.157 20.236 95.4645 21.2515 96.2987 22.5965C96.6101 23.0867 97.0322 23.5039 97.5338 23.8173C98.0355 24.1307 98.604 24.3324 99.1977 24.4076C101.32 24.6906 103.466 24.8179 105.574 24.1642C108.318 23.3405 111.015 22.3837 113.657 21.2976C114.074 21.1221 114.484 20.9099 114.965 20.9721C115.195 20.979 115.42 21.0427 115.617 21.1573C115.814 21.2718 115.977 21.4332 116.09 21.6258C116.299 22.0475 116.028 22.3842 115.756 22.6899C110.856 28.2251 108.795 34.7649 108.184 41.8792C107.784 46.2462 107.901 50.6425 108.532 54.9843C108.668 55.8899 108.972 56.7728 109.2 57.667C109.412 58.516 110.1 58.5528 110.814 58.516C113.475 58.3552 116.131 58.8779 118.511 60.0299C119.651 60.6019 120.627 61.4349 121.351 62.4551C122.546 64.071 122.006 67.1074 120.32 68.5535C118.888 69.7788 116.831 69.5609 114.906 68.3158C112.168 66.6082 110.055 64.1241 108.86 61.21C108.417 60.1318 107.638 59.9366 106.575 60.0243C102.207 60.345 97.8667 60.9539 93.5857 61.8467C86.7456 63.3381 80.1239 65.4548 73.5643 67.7894C72.2915 68.277 71.0468 68.8297 69.8357 69.4449C67.6836 70.475 67.474 70.7749 68.0644 73.0332C68.6986 75.7701 69.5311 78.4612 70.556 81.087C71.1885 82.4954 71.6721 83.9611 71.9996 85.462C72.1059 86.0279 72.3155 86.8231 71.5214 87.0665C70.7273 87.3099 70.4321 86.5741 70.2431 85.9996C68.829 81.7548 67.3087 77.51 66.4496 73.1124C66.1544 71.6381 65.9419 71.5277 64.6163 72.2635C55.9371 77.094 48.0844 83.0169 40.2317 88.9738C39.8562 89.2949 39.5266 89.6622 39.2516 90.0661C38.9915 90.4282 38.62 90.7032 38.1888 90.8528C37.6309 91.0396 37.1024 91.1358 36.7511 90.5387C36.4323 90.0039 36.7157 89.619 37.1467 89.2964C39.3756 87.6325 41.5749 85.9402 43.8422 84.313C48.9198 80.654 54.0152 77.0176 59.3055 73.6444C61.0531 72.5295 62.8834 71.5277 64.7285 70.5655C65.7441 70.0364 66.0422 69.3147 65.874 68.3016C65.0798 63.4909 64.7728 58.6376 64.5543 53.7788C64.5101 52.777 64.2591 52.4657 63.3056 53.0911C62.5144 53.6118 61.6908 54.0816 60.8878 54.5881C59.5859 55.4144 58.2309 55.4541 57.1209 54.4664C56.3917 53.824 56.0935 54.0504 55.695 54.707C54.8536 56.0964 53.6078 57.1237 52.2764 58.0604C51.1871 58.8301 50.0564 59.0848 48.9021 58.1481C48.6246 57.9217 48.294 57.5821 47.9397 57.7434C46.7943 58.2386 45.767 58.2443 44.7573 57.4265C44.4178 57.1435 44.0488 57.4067 43.8717 57.7576C43.5765 58.3009 43.2813 58.8499 43.048 59.4187C42.8266 59.945 42.7351 60.5506 41.9646 60.6072C41.4716 60.644 41.014 60.5506 40.8133 60.0809C40.5594 59.4923 40.4767 58.7763 40.9461 58.3292C42.4222 56.9143 43.1336 55.1314 43.7093 53.2751C43.854 52.8138 44.1197 52.4855 44.6569 52.4657C44.9102 52.4316 45.168 52.4825 45.3865 52.61C45.605 52.7374 45.7707 52.9334 45.8555 53.1647C46.0474 53.6995 46.1507 54.2655 46.2924 54.8117C46.381 55.1399 46.3662 55.5871 46.812 55.6606C47.2578 55.7342 47.5973 55.3776 47.7449 55.0182C47.9139 54.5214 48.0499 54.0148 48.1523 53.5014C48.291 52.9609 48.4829 52.4431 49.2062 52.5336C49.8763 52.6157 50.0712 53.0996 50.0918 53.6826C50.0918 54.3419 50.0712 55.0013 50.1184 55.6635C50.1833 56.6086 50.7295 56.8718 51.4705 56.2747C53.965 54.2598 56.3946 52.1799 56.8493 48.8039C56.8831 48.4544 56.9503 48.1086 57.05 47.771C57.2094 47.2842 57.3452 46.639 58.0921 46.8371C58.7327 47.0126 58.7947 47.5446 58.6589 48.1304C58.4845 48.7648 58.3748 49.414 58.3312 50.0688C58.3156 50.429 58.4027 50.7864 58.5834 51.1026C58.764 51.4188 59.0312 51.6818 59.3562 51.8632C59.6812 52.0446 60.0516 52.1375 60.4276 52.132C60.8037 52.1265 61.171 52.0227 61.49 51.8318C61.5314 51.8092 61.5668 51.7809 61.6052 51.7582C64.3802 50.1707 64.3713 50.1707 64.327 47.0748C64.2975 45.0571 64.2385 43.0394 64.2975 41.0246C64.3743 38.5032 65.1064 38.0758 67.5449 39.0437C68.5073 39.4285 69.4549 39.8162 70.2638 40.5208C71.7103 41.7858 72.1354 43.1102 71.4446 44.8534C70.7224 46.7133 69.4755 48.3445 67.843 49.5651C66.6622 50.4593 66.1987 51.4328 66.1751 52.8959C66.0983 57.7349 66.7242 62.5174 67.1581 67.3282C67.2821 68.6837 67.6482 68.8676 68.9088 68.3299C77.0035 64.8888 85.4407 62.4863 94.0432 60.5252C98.0469 59.6091 102.128 59.0408 106.239 58.8273C107.419 58.765 107.762 58.3886 107.529 57.285C105.757 48.9227 106.324 40.634 108.529 32.4218C109.324 29.4646 111.006 26.8752 112.432 24.184C112.529 24.0708 112.59 23.9327 112.606 23.7869C112.623 23.641 112.594 23.4937 112.524 23.3634ZM112.559 59.846C112.146 59.846 111.735 59.846 111.325 59.846C110.419 59.846 110.194 60.2507 110.519 61.0261C111.6 63.7641 113.712 66.0146 116.438 67.3338C117.914 68.0526 119.119 67.597 119.824 66.1764C120.846 64.1106 120.063 62.0278 117.861 61.0006C116.214 60.2179 114.397 59.8221 112.559 59.846ZM65.9625 44.893C65.9625 45.6882 65.93 46.5202 65.9625 47.3493C65.995 48.1785 66.4378 48.3426 67.0902 47.7795C67.9053 47.078 68.6024 46.2599 69.1567 45.3543C70.5649 43.0592 69.9007 41.3924 67.2733 40.6171C66.3876 40.3482 65.995 40.5435 65.9241 41.4519C65.8057 42.5968 65.8185 43.7507 65.9625 44.893Z" fill="black"/>
<path d="M18.5981 45.9315C18.5587 45.0592 18.5666 44.1855 18.6217 43.3139C18.6926 42.6546 18.9701 41.9131 19.8616 42.0377C20.6469 42.148 20.7148 42.847 20.6941 43.4922C20.6528 44.8477 20.6764 46.206 20.5436 47.5531C20.4343 48.685 20.8772 48.7699 21.7953 48.402C25.146 47.0126 28.6472 45.9542 31.865 44.2648C32.482 43.9422 33.164 43.5545 33.6363 44.3921C34.1086 45.2297 33.6363 45.807 32.8038 46.1523C29.4295 47.621 25.8988 48.6992 22.4389 49.9528C20.5554 50.6348 20.5554 50.6744 20.9628 52.5223C21.3072 53.8851 21.7907 55.2121 22.4064 56.4841C23.292 58.4226 25.9489 59.4894 28.0479 58.7961C30.6281 57.9472 32.8835 56.5322 35.0947 55.0494C36.8128 53.8976 38.5516 52.7855 39.9657 51.2404C41.4713 49.5991 41.8049 47.8445 40.9104 45.8919C37.8431 39.1936 34.8555 32.4557 30.9174 26.1649C28.6797 22.5738 25.7954 19.4497 23.0677 16.2151C18.9347 11.3364 14.1906 7.02656 9.76533 2.42236C9.22804 1.85639 8.54019 1.24514 9.10405 0.492395C9.66791 -0.26035 10.5801 -0.00283174 11.389 0.237707C11.9794 0.413159 12.3366 0.80368 11.7433 1.26495C11.0259 1.83092 11.5159 2.17334 11.8613 2.54971C14.9237 5.85876 17.9919 9.15933 21.0661 12.4514C27.0767 18.9261 32.4141 25.8423 36.3523 33.6924C38.3686 37.7164 40.4853 41.6896 42.5518 45.6938C43.7326 47.9917 43.3046 50.2216 41.5303 52.1205C38.2475 55.6606 34.1677 58.1085 29.8133 60.2054C28.8593 60.6572 27.8108 60.8958 26.7467 60.9032C25.6826 60.9106 24.6306 60.6866 23.6698 60.2481C22.7091 59.8095 21.8646 59.1678 21.1999 58.3713C20.5351 57.5748 20.0675 56.6441 19.8321 55.6493C19.6354 54.6586 19.3651 53.6826 19.0232 52.7289C18.7073 51.9563 18.2498 51.645 17.4675 52.0101C14.5153 53.3911 11.3152 54.1919 8.27155 55.3578C6.69215 55.9634 5.11866 56.5039 3.36509 56.2889C1.1687 56.0229 -0.266033 54.5909 0.0527974 52.893C0.256495 51.7922 1.09785 51.0621 1.96283 50.4169C3.35774 49.3455 4.92512 48.4987 6.60359 47.9096C7.74607 47.5248 8.00585 46.9277 7.41838 45.9117C7.16914 45.4391 6.97414 44.9419 6.83681 44.4289C6.63901 43.795 6.60064 43.1668 7.45971 42.9545C8.31878 42.7423 8.60809 43.3083 8.86493 43.9025C9.06202 44.4828 9.2987 45.05 9.57344 45.6005C10.096 46.4664 10.6421 47.3323 11.6075 47.8643C12.2333 48.2011 12.558 48.7331 12.2569 49.4095C11.9263 50.148 11.2798 50.049 10.6185 49.8509C7.91434 49.0359 4.39244 50.2386 2.6802 52.5138C2.15472 53.2128 2.43812 53.6656 3.0935 54.0023C3.91419 54.4268 4.78507 54.3334 5.62348 54.0561C9.24575 52.8534 12.868 51.6564 16.4755 50.4141C18.6424 49.667 18.6631 49.5906 18.666 47.3776V45.9287L18.5981 45.9315Z" fill="black"/>
<path d="M47.9575 45.9146C48.0165 44.1714 48.9258 42.6489 49.3361 40.9934C49.359 40.8842 49.4055 40.7809 49.4727 40.69C49.5399 40.5992 49.6262 40.5229 49.7261 40.4661C49.8261 40.4092 49.9373 40.3732 50.0527 40.3602C50.1681 40.3472 50.285 40.3576 50.3959 40.3907C50.6046 40.4176 50.7943 40.5211 50.9248 40.6795C51.0554 40.8379 51.1166 41.0388 51.0956 41.2396C50.8299 43.1526 50.0978 44.9439 49.3922 46.7381C49.3557 46.8206 49.3009 46.8946 49.2316 46.9549C49.1623 47.0152 49.0802 47.0604 48.991 47.0873C48.9017 47.1142 48.8074 47.1222 48.7146 47.1108C48.6218 47.0993 48.5327 47.0687 48.4534 47.021C47.9634 46.7947 47.8748 46.3843 47.9575 45.9146Z" fill="black"/>
</svg>
